<mxfile host="app.diagrams.net" modified="2022-11-01T18:54:01.226Z" agent="5.0 (Windows)" etag="buqN1CFVSlrrrVEJ-ZI4" version="20.5.1" type="github">
  <diagram id="CNh_oSeDJi4wkCSfdxcr" name="Página-1">
    <mxGraphModel dx="3749" dy="2022" grid="1" gridSize="10" guides="1" tooltips="1" connect="1" arrows="1" fold="1" page="1" pageScale="1" pageWidth="827" pageHeight="1169" math="0" shadow="0">
      <root>
        <mxCell id="0" />
        <mxCell id="1" parent="0" />
        <mxCell id="lmQwwSlo8HLHVHyUA46f-103" style="edgeStyle=orthogonalEdgeStyle;rounded=0;orthogonalLoop=1;jettySize=auto;html=1;exitX=0;exitY=0.5;exitDx=0;exitDy=0;entryX=1;entryY=0.5;entryDx=0;entryDy=0;endArrow=none;endFill=0;" edge="1" parent="1" source="FF5izW6BmaoNVAN6Tj0j-1" target="lmQwwSlo8HLHVHyUA46f-100">
          <mxGeometry relative="1" as="geometry" />
        </mxCell>
        <mxCell id="lmQwwSlo8HLHVHyUA46f-104" style="edgeStyle=orthogonalEdgeStyle;rounded=0;orthogonalLoop=1;jettySize=auto;html=1;exitX=0;exitY=0;exitDx=0;exitDy=0;entryX=0.5;entryY=1;entryDx=0;entryDy=0;endArrow=none;endFill=0;" edge="1" parent="1" source="FF5izW6BmaoNVAN6Tj0j-1" target="lmQwwSlo8HLHVHyUA46f-101">
          <mxGeometry relative="1" as="geometry" />
        </mxCell>
        <mxCell id="lmQwwSlo8HLHVHyUA46f-105" style="edgeStyle=orthogonalEdgeStyle;rounded=0;orthogonalLoop=1;jettySize=auto;html=1;exitX=0.75;exitY=0;exitDx=0;exitDy=0;entryX=0.5;entryY=1;entryDx=0;entryDy=0;endArrow=none;endFill=0;" edge="1" parent="1" source="FF5izW6BmaoNVAN6Tj0j-1" target="lmQwwSlo8HLHVHyUA46f-102">
          <mxGeometry relative="1" as="geometry" />
        </mxCell>
        <mxCell id="FF5izW6BmaoNVAN6Tj0j-1" value="Fábrica" style="whiteSpace=wrap;html=1;align=center;fillColor=#d5e8d4;strokeColor=#82b366;strokeWidth=2;" parent="1" vertex="1">
          <mxGeometry x="270" y="747" width="80" height="40" as="geometry" />
        </mxCell>
        <mxCell id="lmQwwSlo8HLHVHyUA46f-96" style="edgeStyle=orthogonalEdgeStyle;rounded=0;orthogonalLoop=1;jettySize=auto;html=1;exitX=0.75;exitY=0;exitDx=0;exitDy=0;entryX=0;entryY=0.5;entryDx=0;entryDy=0;endArrow=none;endFill=0;" edge="1" parent="1" source="FF5izW6BmaoNVAN6Tj0j-2" target="lmQwwSlo8HLHVHyUA46f-94">
          <mxGeometry relative="1" as="geometry" />
        </mxCell>
        <mxCell id="lmQwwSlo8HLHVHyUA46f-97" style="edgeStyle=orthogonalEdgeStyle;rounded=0;orthogonalLoop=1;jettySize=auto;html=1;exitX=1;exitY=0.75;exitDx=0;exitDy=0;entryX=0;entryY=0.5;entryDx=0;entryDy=0;endArrow=none;endFill=0;" edge="1" parent="1" source="FF5izW6BmaoNVAN6Tj0j-2" target="lmQwwSlo8HLHVHyUA46f-95">
          <mxGeometry relative="1" as="geometry" />
        </mxCell>
        <mxCell id="FF5izW6BmaoNVAN6Tj0j-2" value="Artículo" style="whiteSpace=wrap;html=1;align=center;fillColor=#d5e8d4;strokeColor=#82b366;strokeWidth=2;" parent="1" vertex="1">
          <mxGeometry x="590" y="747" width="76" height="40" as="geometry" />
        </mxCell>
        <mxCell id="FF5izW6BmaoNVAN6Tj0j-4" style="edgeStyle=orthogonalEdgeStyle;rounded=0;orthogonalLoop=1;jettySize=auto;html=1;exitX=0;exitY=0.5;exitDx=0;exitDy=0;entryX=1;entryY=0.5;entryDx=0;entryDy=0;" parent="1" source="FF5izW6BmaoNVAN6Tj0j-3" target="FF5izW6BmaoNVAN6Tj0j-1" edge="1">
          <mxGeometry relative="1" as="geometry" />
        </mxCell>
        <mxCell id="FF5izW6BmaoNVAN6Tj0j-8" value="(1,N)" style="edgeLabel;html=1;align=center;verticalAlign=middle;resizable=0;points=[];" parent="FF5izW6BmaoNVAN6Tj0j-4" vertex="1" connectable="0">
          <mxGeometry x="0.1371" y="1" relative="1" as="geometry">
            <mxPoint y="-11" as="offset" />
          </mxGeometry>
        </mxCell>
        <mxCell id="FF5izW6BmaoNVAN6Tj0j-5" style="edgeStyle=orthogonalEdgeStyle;rounded=0;orthogonalLoop=1;jettySize=auto;html=1;exitX=1;exitY=0.5;exitDx=0;exitDy=0;entryX=0;entryY=0.5;entryDx=0;entryDy=0;" parent="1" source="FF5izW6BmaoNVAN6Tj0j-3" target="FF5izW6BmaoNVAN6Tj0j-2" edge="1">
          <mxGeometry relative="1" as="geometry" />
        </mxCell>
        <mxCell id="FF5izW6BmaoNVAN6Tj0j-6" value="(0,N)" style="edgeLabel;html=1;align=center;verticalAlign=middle;resizable=0;points=[];" parent="FF5izW6BmaoNVAN6Tj0j-5" vertex="1" connectable="0">
          <mxGeometry x="0.2083" y="-1" relative="1" as="geometry">
            <mxPoint y="-11" as="offset" />
          </mxGeometry>
        </mxCell>
        <mxCell id="lmQwwSlo8HLHVHyUA46f-99" style="edgeStyle=orthogonalEdgeStyle;rounded=0;orthogonalLoop=1;jettySize=auto;html=1;exitX=0.5;exitY=1;exitDx=0;exitDy=0;entryX=0.5;entryY=0;entryDx=0;entryDy=0;endArrow=none;endFill=0;" edge="1" parent="1" source="FF5izW6BmaoNVAN6Tj0j-3" target="lmQwwSlo8HLHVHyUA46f-98">
          <mxGeometry relative="1" as="geometry" />
        </mxCell>
        <mxCell id="FF5izW6BmaoNVAN6Tj0j-3" value="Provee" style="shape=rhombus;perimeter=rhombusPerimeter;whiteSpace=wrap;html=1;align=center;fillColor=#fff2cc;strokeColor=#d6b656;strokeWidth=2;" parent="1" vertex="1">
          <mxGeometry x="420" y="737" width="90" height="60" as="geometry" />
        </mxCell>
        <mxCell id="FF5izW6BmaoNVAN6Tj0j-9" value="N:M" style="text;html=1;align=center;verticalAlign=middle;resizable=0;points=[];autosize=1;strokeColor=none;fillColor=none;" parent="1" vertex="1">
          <mxGeometry x="440" y="712" width="50" height="30" as="geometry" />
        </mxCell>
        <mxCell id="FF5izW6BmaoNVAN6Tj0j-14" style="edgeStyle=orthogonalEdgeStyle;rounded=0;orthogonalLoop=1;jettySize=auto;html=1;exitX=0.5;exitY=0;exitDx=0;exitDy=0;entryX=0.5;entryY=1;entryDx=0;entryDy=0;endArrow=none;endFill=0;" parent="1" source="FF5izW6BmaoNVAN6Tj0j-13" target="FF5izW6BmaoNVAN6Tj0j-2" edge="1">
          <mxGeometry relative="1" as="geometry" />
        </mxCell>
        <mxCell id="FF5izW6BmaoNVAN6Tj0j-16" value="(1,N)" style="edgeLabel;html=1;align=center;verticalAlign=middle;resizable=0;points=[];" parent="FF5izW6BmaoNVAN6Tj0j-14" vertex="1" connectable="0">
          <mxGeometry x="-0.152" relative="1" as="geometry">
            <mxPoint x="22" as="offset" />
          </mxGeometry>
        </mxCell>
        <mxCell id="FF5izW6BmaoNVAN6Tj0j-15" style="edgeStyle=orthogonalEdgeStyle;rounded=0;orthogonalLoop=1;jettySize=auto;html=1;exitX=0.5;exitY=1;exitDx=0;exitDy=0;entryX=0.5;entryY=0;entryDx=0;entryDy=0;endArrow=none;endFill=0;" parent="1" source="FF5izW6BmaoNVAN6Tj0j-13" target="lmQwwSlo8HLHVHyUA46f-1" edge="1">
          <mxGeometry relative="1" as="geometry">
            <mxPoint x="628" y="947" as="targetPoint" />
          </mxGeometry>
        </mxCell>
        <mxCell id="FF5izW6BmaoNVAN6Tj0j-17" value="(0,N)" style="edgeLabel;html=1;align=center;verticalAlign=middle;resizable=0;points=[];" parent="FF5izW6BmaoNVAN6Tj0j-15" vertex="1" connectable="0">
          <mxGeometry x="-0.312" relative="1" as="geometry">
            <mxPoint x="22" as="offset" />
          </mxGeometry>
        </mxCell>
        <mxCell id="lmQwwSlo8HLHVHyUA46f-93" style="edgeStyle=orthogonalEdgeStyle;rounded=0;orthogonalLoop=1;jettySize=auto;html=1;exitX=0;exitY=0.5;exitDx=0;exitDy=0;entryX=1;entryY=0.5;entryDx=0;entryDy=0;endArrow=none;endFill=0;" edge="1" parent="1" source="FF5izW6BmaoNVAN6Tj0j-13" target="lmQwwSlo8HLHVHyUA46f-92">
          <mxGeometry relative="1" as="geometry" />
        </mxCell>
        <mxCell id="FF5izW6BmaoNVAN6Tj0j-13" value="Se incluye" style="shape=rhombus;perimeter=rhombusPerimeter;whiteSpace=wrap;html=1;align=center;fillColor=#fff2cc;strokeColor=#d6b656;strokeWidth=2;" parent="1" vertex="1">
          <mxGeometry x="583" y="837" width="90" height="60" as="geometry" />
        </mxCell>
        <mxCell id="FF5izW6BmaoNVAN6Tj0j-18" value="N:M" style="text;html=1;align=center;verticalAlign=middle;resizable=0;points=[];autosize=1;strokeColor=none;fillColor=none;" parent="1" vertex="1">
          <mxGeometry x="665" y="852" width="50" height="30" as="geometry" />
        </mxCell>
        <mxCell id="lmQwwSlo8HLHVHyUA46f-66" style="edgeStyle=orthogonalEdgeStyle;rounded=0;orthogonalLoop=1;jettySize=auto;html=1;exitX=0.75;exitY=1;exitDx=0;exitDy=0;entryX=0.5;entryY=0;entryDx=0;entryDy=0;endArrow=none;endFill=0;" edge="1" parent="1" source="FF5izW6BmaoNVAN6Tj0j-19" target="lmQwwSlo8HLHVHyUA46f-61">
          <mxGeometry relative="1" as="geometry" />
        </mxCell>
        <mxCell id="lmQwwSlo8HLHVHyUA46f-67" style="edgeStyle=orthogonalEdgeStyle;rounded=0;orthogonalLoop=1;jettySize=auto;html=1;exitX=0.25;exitY=1;exitDx=0;exitDy=0;entryX=0.5;entryY=0;entryDx=0;entryDy=0;endArrow=none;endFill=0;" edge="1" parent="1" source="FF5izW6BmaoNVAN6Tj0j-19" target="lmQwwSlo8HLHVHyUA46f-62">
          <mxGeometry relative="1" as="geometry" />
        </mxCell>
        <mxCell id="lmQwwSlo8HLHVHyUA46f-70" style="edgeStyle=orthogonalEdgeStyle;rounded=0;orthogonalLoop=1;jettySize=auto;html=1;exitX=0.75;exitY=0;exitDx=0;exitDy=0;entryX=0.5;entryY=1;entryDx=0;entryDy=0;endArrow=none;endFill=0;" edge="1" parent="1" source="FF5izW6BmaoNVAN6Tj0j-19" target="lmQwwSlo8HLHVHyUA46f-63">
          <mxGeometry relative="1" as="geometry" />
        </mxCell>
        <mxCell id="lmQwwSlo8HLHVHyUA46f-71" style="edgeStyle=orthogonalEdgeStyle;rounded=0;orthogonalLoop=1;jettySize=auto;html=1;exitX=0;exitY=0.5;exitDx=0;exitDy=0;entryX=1;entryY=0.5;entryDx=0;entryDy=0;endArrow=none;endFill=0;" edge="1" parent="1" source="FF5izW6BmaoNVAN6Tj0j-19" target="lmQwwSlo8HLHVHyUA46f-65">
          <mxGeometry relative="1" as="geometry" />
        </mxCell>
        <mxCell id="FF5izW6BmaoNVAN6Tj0j-19" value="Cliente" style="whiteSpace=wrap;html=1;align=center;fillColor=#d5e8d4;strokeColor=#82b366;strokeWidth=2;" parent="1" vertex="1">
          <mxGeometry x="272" y="947" width="76" height="40" as="geometry" />
        </mxCell>
        <mxCell id="FF5izW6BmaoNVAN6Tj0j-21" style="edgeStyle=orthogonalEdgeStyle;rounded=0;orthogonalLoop=1;jettySize=auto;html=1;exitX=0;exitY=0.5;exitDx=0;exitDy=0;entryX=1;entryY=0.5;entryDx=0;entryDy=0;endArrow=none;endFill=0;" parent="1" source="FF5izW6BmaoNVAN6Tj0j-20" target="FF5izW6BmaoNVAN6Tj0j-19" edge="1">
          <mxGeometry relative="1" as="geometry" />
        </mxCell>
        <mxCell id="FF5izW6BmaoNVAN6Tj0j-24" value="(1,1)" style="edgeLabel;html=1;align=center;verticalAlign=middle;resizable=0;points=[];" parent="FF5izW6BmaoNVAN6Tj0j-21" vertex="1" connectable="0">
          <mxGeometry x="0.2056" y="1" relative="1" as="geometry">
            <mxPoint x="7" as="offset" />
          </mxGeometry>
        </mxCell>
        <mxCell id="FF5izW6BmaoNVAN6Tj0j-22" style="edgeStyle=orthogonalEdgeStyle;rounded=0;orthogonalLoop=1;jettySize=auto;html=1;exitX=1;exitY=0.5;exitDx=0;exitDy=0;endArrow=none;endFill=0;" parent="1" source="FF5izW6BmaoNVAN6Tj0j-20" edge="1">
          <mxGeometry relative="1" as="geometry">
            <mxPoint x="590" y="967" as="targetPoint" />
          </mxGeometry>
        </mxCell>
        <mxCell id="FF5izW6BmaoNVAN6Tj0j-23" value="(1,N)" style="edgeLabel;html=1;align=center;verticalAlign=middle;resizable=0;points=[];" parent="FF5izW6BmaoNVAN6Tj0j-22" vertex="1" connectable="0">
          <mxGeometry x="0.3282" relative="1" as="geometry">
            <mxPoint x="-10" as="offset" />
          </mxGeometry>
        </mxCell>
        <mxCell id="FF5izW6BmaoNVAN6Tj0j-20" value="Hacer" style="shape=rhombus;perimeter=rhombusPerimeter;whiteSpace=wrap;html=1;align=center;fillColor=#fff2cc;strokeColor=#d6b656;strokeWidth=2;" parent="1" vertex="1">
          <mxGeometry x="420" y="937" width="90" height="60" as="geometry" />
        </mxCell>
        <mxCell id="FF5izW6BmaoNVAN6Tj0j-25" value="1:N" style="text;html=1;align=center;verticalAlign=middle;resizable=0;points=[];autosize=1;strokeColor=none;fillColor=none;" parent="1" vertex="1">
          <mxGeometry x="445" y="914" width="40" height="30" as="geometry" />
        </mxCell>
        <mxCell id="lmQwwSlo8HLHVHyUA46f-87" style="edgeStyle=orthogonalEdgeStyle;rounded=0;orthogonalLoop=1;jettySize=auto;html=1;exitX=0.5;exitY=1;exitDx=0;exitDy=0;entryX=0.5;entryY=0;entryDx=0;entryDy=0;endArrow=none;endFill=0;" edge="1" parent="1" source="lmQwwSlo8HLHVHyUA46f-1" target="lmQwwSlo8HLHVHyUA46f-82">
          <mxGeometry relative="1" as="geometry" />
        </mxCell>
        <mxCell id="lmQwwSlo8HLHVHyUA46f-1" value="&lt;div&gt;Pedido&lt;/div&gt;" style="shape=ext;margin=3;double=1;whiteSpace=wrap;html=1;align=center;rounded=0;fillStyle=auto;fillColor=#d5e8d4;strokeColor=#82b366;strokeWidth=2;" vertex="1" parent="1">
          <mxGeometry x="588" y="947" width="80" height="40" as="geometry" />
        </mxCell>
        <mxCell id="lmQwwSlo8HLHVHyUA46f-2" value="Fábrica" style="whiteSpace=wrap;html=1;align=center;fillColor=#d5e8d4;strokeColor=#82b366;strokeWidth=2;" vertex="1" parent="1">
          <mxGeometry x="133.5" y="340" width="80" height="40" as="geometry" />
        </mxCell>
        <mxCell id="lmQwwSlo8HLHVHyUA46f-3" value="Artículo" style="whiteSpace=wrap;html=1;align=center;fillColor=#d5e8d4;strokeColor=#82b366;strokeWidth=2;" vertex="1" parent="1">
          <mxGeometry x="453.5" y="340" width="76" height="40" as="geometry" />
        </mxCell>
        <mxCell id="lmQwwSlo8HLHVHyUA46f-4" style="edgeStyle=orthogonalEdgeStyle;rounded=0;orthogonalLoop=1;jettySize=auto;html=1;exitX=0;exitY=0.5;exitDx=0;exitDy=0;entryX=1;entryY=0.5;entryDx=0;entryDy=0;endArrow=none;endFill=0;" edge="1" parent="1" source="lmQwwSlo8HLHVHyUA46f-8" target="lmQwwSlo8HLHVHyUA46f-2">
          <mxGeometry relative="1" as="geometry" />
        </mxCell>
        <mxCell id="lmQwwSlo8HLHVHyUA46f-6" style="edgeStyle=orthogonalEdgeStyle;rounded=0;orthogonalLoop=1;jettySize=auto;html=1;exitX=1;exitY=0.5;exitDx=0;exitDy=0;entryX=0;entryY=0.5;entryDx=0;entryDy=0;endArrow=none;endFill=0;" edge="1" parent="1" source="lmQwwSlo8HLHVHyUA46f-8" target="lmQwwSlo8HLHVHyUA46f-3">
          <mxGeometry relative="1" as="geometry" />
        </mxCell>
        <mxCell id="lmQwwSlo8HLHVHyUA46f-8" value="Provee" style="shape=rhombus;perimeter=rhombusPerimeter;whiteSpace=wrap;html=1;align=center;fillColor=#fff2cc;strokeColor=#d6b656;strokeWidth=2;" vertex="1" parent="1">
          <mxGeometry x="283.5" y="330" width="90" height="60" as="geometry" />
        </mxCell>
        <mxCell id="lmQwwSlo8HLHVHyUA46f-10" style="edgeStyle=orthogonalEdgeStyle;rounded=0;orthogonalLoop=1;jettySize=auto;html=1;exitX=0.5;exitY=0;exitDx=0;exitDy=0;entryX=0.5;entryY=1;entryDx=0;entryDy=0;endArrow=none;endFill=0;" edge="1" parent="1" source="lmQwwSlo8HLHVHyUA46f-14" target="lmQwwSlo8HLHVHyUA46f-3">
          <mxGeometry relative="1" as="geometry" />
        </mxCell>
        <mxCell id="lmQwwSlo8HLHVHyUA46f-12" style="edgeStyle=orthogonalEdgeStyle;rounded=0;orthogonalLoop=1;jettySize=auto;html=1;exitX=0.5;exitY=1;exitDx=0;exitDy=0;entryX=0.5;entryY=0;entryDx=0;entryDy=0;endArrow=none;endFill=0;" edge="1" parent="1" source="lmQwwSlo8HLHVHyUA46f-14" target="lmQwwSlo8HLHVHyUA46f-23">
          <mxGeometry relative="1" as="geometry">
            <mxPoint x="491.5" y="540" as="targetPoint" />
          </mxGeometry>
        </mxCell>
        <mxCell id="lmQwwSlo8HLHVHyUA46f-14" value="Se incluye" style="shape=rhombus;perimeter=rhombusPerimeter;whiteSpace=wrap;html=1;align=center;fillColor=#fff2cc;strokeColor=#d6b656;strokeWidth=2;" vertex="1" parent="1">
          <mxGeometry x="446.5" y="430" width="90" height="60" as="geometry" />
        </mxCell>
        <mxCell id="lmQwwSlo8HLHVHyUA46f-16" value="Cliente" style="whiteSpace=wrap;html=1;align=center;fillColor=#d5e8d4;strokeColor=#82b366;strokeWidth=2;" vertex="1" parent="1">
          <mxGeometry x="135.5" y="540" width="76" height="40" as="geometry" />
        </mxCell>
        <mxCell id="lmQwwSlo8HLHVHyUA46f-17" style="edgeStyle=orthogonalEdgeStyle;rounded=0;orthogonalLoop=1;jettySize=auto;html=1;exitX=0;exitY=0.5;exitDx=0;exitDy=0;entryX=1;entryY=0.5;entryDx=0;entryDy=0;endArrow=none;endFill=0;" edge="1" parent="1" source="lmQwwSlo8HLHVHyUA46f-21" target="lmQwwSlo8HLHVHyUA46f-16">
          <mxGeometry relative="1" as="geometry" />
        </mxCell>
        <mxCell id="lmQwwSlo8HLHVHyUA46f-19" style="edgeStyle=orthogonalEdgeStyle;rounded=0;orthogonalLoop=1;jettySize=auto;html=1;exitX=1;exitY=0.5;exitDx=0;exitDy=0;endArrow=none;endFill=0;" edge="1" parent="1" source="lmQwwSlo8HLHVHyUA46f-21">
          <mxGeometry relative="1" as="geometry">
            <mxPoint x="453.5" y="560" as="targetPoint" />
          </mxGeometry>
        </mxCell>
        <mxCell id="lmQwwSlo8HLHVHyUA46f-21" value="Hacer" style="shape=rhombus;perimeter=rhombusPerimeter;whiteSpace=wrap;html=1;align=center;fillColor=#fff2cc;strokeColor=#d6b656;strokeWidth=2;" vertex="1" parent="1">
          <mxGeometry x="283.5" y="530" width="90" height="60" as="geometry" />
        </mxCell>
        <mxCell id="lmQwwSlo8HLHVHyUA46f-23" value="&lt;div&gt;Pedido&lt;/div&gt;" style="shape=ext;margin=3;double=1;whiteSpace=wrap;html=1;align=center;rounded=0;fillStyle=auto;fillColor=#d5e8d4;strokeColor=#82b366;strokeWidth=2;" vertex="1" parent="1">
          <mxGeometry x="451.5" y="540" width="80" height="40" as="geometry" />
        </mxCell>
        <mxCell id="lmQwwSlo8HLHVHyUA46f-24" value="Fábrica" style="whiteSpace=wrap;html=1;align=center;fillColor=#d5e8d4;strokeColor=#82b366;strokeWidth=2;" vertex="1" parent="1">
          <mxGeometry x="38" y="30" width="80" height="40" as="geometry" />
        </mxCell>
        <mxCell id="lmQwwSlo8HLHVHyUA46f-25" value="Artículo" style="whiteSpace=wrap;html=1;align=center;fillColor=#d5e8d4;strokeColor=#82b366;strokeWidth=2;" vertex="1" parent="1">
          <mxGeometry x="358" y="30" width="76" height="40" as="geometry" />
        </mxCell>
        <mxCell id="lmQwwSlo8HLHVHyUA46f-26" style="edgeStyle=orthogonalEdgeStyle;rounded=0;orthogonalLoop=1;jettySize=auto;html=1;exitX=0;exitY=0.5;exitDx=0;exitDy=0;entryX=1;entryY=0.5;entryDx=0;entryDy=0;endArrow=none;endFill=0;" edge="1" source="lmQwwSlo8HLHVHyUA46f-28" target="lmQwwSlo8HLHVHyUA46f-24" parent="1">
          <mxGeometry relative="1" as="geometry" />
        </mxCell>
        <mxCell id="lmQwwSlo8HLHVHyUA46f-27" style="edgeStyle=orthogonalEdgeStyle;rounded=0;orthogonalLoop=1;jettySize=auto;html=1;exitX=1;exitY=0.5;exitDx=0;exitDy=0;entryX=0;entryY=0.5;entryDx=0;entryDy=0;endArrow=none;endFill=0;" edge="1" source="lmQwwSlo8HLHVHyUA46f-28" target="lmQwwSlo8HLHVHyUA46f-25" parent="1">
          <mxGeometry relative="1" as="geometry" />
        </mxCell>
        <mxCell id="lmQwwSlo8HLHVHyUA46f-28" value="Provee" style="shape=rhombus;perimeter=rhombusPerimeter;whiteSpace=wrap;html=1;align=center;fillColor=#fff2cc;strokeColor=#d6b656;strokeWidth=2;" vertex="1" parent="1">
          <mxGeometry x="188" y="20" width="90" height="60" as="geometry" />
        </mxCell>
        <mxCell id="lmQwwSlo8HLHVHyUA46f-29" value="Pedido" style="whiteSpace=wrap;html=1;align=center;fillColor=#d5e8d4;strokeColor=#82b366;strokeWidth=2;" vertex="1" parent="1">
          <mxGeometry x="38" y="110" width="80" height="40" as="geometry" />
        </mxCell>
        <mxCell id="lmQwwSlo8HLHVHyUA46f-30" value="Artículo" style="whiteSpace=wrap;html=1;align=center;fillColor=#d5e8d4;strokeColor=#82b366;strokeWidth=2;" vertex="1" parent="1">
          <mxGeometry x="358" y="110" width="76" height="40" as="geometry" />
        </mxCell>
        <mxCell id="lmQwwSlo8HLHVHyUA46f-31" style="edgeStyle=orthogonalEdgeStyle;rounded=0;orthogonalLoop=1;jettySize=auto;html=1;exitX=0;exitY=0.5;exitDx=0;exitDy=0;entryX=1;entryY=0.5;entryDx=0;entryDy=0;endArrow=none;endFill=0;" edge="1" source="lmQwwSlo8HLHVHyUA46f-33" target="lmQwwSlo8HLHVHyUA46f-29" parent="1">
          <mxGeometry relative="1" as="geometry" />
        </mxCell>
        <mxCell id="lmQwwSlo8HLHVHyUA46f-32" style="edgeStyle=orthogonalEdgeStyle;rounded=0;orthogonalLoop=1;jettySize=auto;html=1;exitX=1;exitY=0.5;exitDx=0;exitDy=0;entryX=0;entryY=0.5;entryDx=0;entryDy=0;endArrow=none;endFill=0;" edge="1" source="lmQwwSlo8HLHVHyUA46f-33" target="lmQwwSlo8HLHVHyUA46f-30" parent="1">
          <mxGeometry relative="1" as="geometry" />
        </mxCell>
        <mxCell id="lmQwwSlo8HLHVHyUA46f-33" value="Se incluye" style="shape=rhombus;perimeter=rhombusPerimeter;whiteSpace=wrap;html=1;align=center;fillColor=#fff2cc;strokeColor=#d6b656;strokeWidth=2;" vertex="1" parent="1">
          <mxGeometry x="188" y="100" width="90" height="60" as="geometry" />
        </mxCell>
        <mxCell id="lmQwwSlo8HLHVHyUA46f-56" value="Cliente" style="whiteSpace=wrap;html=1;align=center;fillColor=#d5e8d4;strokeColor=#82b366;strokeWidth=2;" vertex="1" parent="1">
          <mxGeometry x="41" y="190" width="80" height="40" as="geometry" />
        </mxCell>
        <mxCell id="lmQwwSlo8HLHVHyUA46f-57" value="Pedido" style="whiteSpace=wrap;html=1;align=center;fillColor=#d5e8d4;strokeColor=#82b366;strokeWidth=2;" vertex="1" parent="1">
          <mxGeometry x="361" y="190" width="76" height="40" as="geometry" />
        </mxCell>
        <mxCell id="lmQwwSlo8HLHVHyUA46f-58" style="edgeStyle=orthogonalEdgeStyle;rounded=0;orthogonalLoop=1;jettySize=auto;html=1;exitX=0;exitY=0.5;exitDx=0;exitDy=0;entryX=1;entryY=0.5;entryDx=0;entryDy=0;endArrow=none;endFill=0;" edge="1" source="lmQwwSlo8HLHVHyUA46f-60" target="lmQwwSlo8HLHVHyUA46f-56" parent="1">
          <mxGeometry relative="1" as="geometry" />
        </mxCell>
        <mxCell id="lmQwwSlo8HLHVHyUA46f-59" style="edgeStyle=orthogonalEdgeStyle;rounded=0;orthogonalLoop=1;jettySize=auto;html=1;exitX=1;exitY=0.5;exitDx=0;exitDy=0;entryX=0;entryY=0.5;entryDx=0;entryDy=0;endArrow=none;endFill=0;" edge="1" source="lmQwwSlo8HLHVHyUA46f-60" target="lmQwwSlo8HLHVHyUA46f-57" parent="1">
          <mxGeometry relative="1" as="geometry" />
        </mxCell>
        <mxCell id="lmQwwSlo8HLHVHyUA46f-60" value="Hacer" style="shape=rhombus;perimeter=rhombusPerimeter;whiteSpace=wrap;html=1;align=center;fillColor=#fff2cc;strokeColor=#d6b656;strokeWidth=2;" vertex="1" parent="1">
          <mxGeometry x="191" y="180" width="90" height="60" as="geometry" />
        </mxCell>
        <mxCell id="lmQwwSlo8HLHVHyUA46f-61" value="Saldo" style="ellipse;whiteSpace=wrap;html=1;align=center;dashed=1;rounded=0;fillStyle=auto;strokeWidth=2;gradientColor=none;" vertex="1" parent="1">
          <mxGeometry x="330" y="1020" width="50" height="20" as="geometry" />
        </mxCell>
        <mxCell id="lmQwwSlo8HLHVHyUA46f-62" value="Límite crédito" style="ellipse;whiteSpace=wrap;html=1;align=center;rounded=0;fillStyle=auto;strokeWidth=2;gradientColor=none;" vertex="1" parent="1">
          <mxGeometry x="220" y="1020" width="90" height="30" as="geometry" />
        </mxCell>
        <mxCell id="lmQwwSlo8HLHVHyUA46f-63" value="Número" style="ellipse;whiteSpace=wrap;html=1;align=center;fontStyle=4;rounded=0;fillStyle=auto;strokeWidth=2;gradientColor=none;" vertex="1" parent="1">
          <mxGeometry x="310" y="887" width="50" height="27" as="geometry" />
        </mxCell>
        <mxCell id="lmQwwSlo8HLHVHyUA46f-78" style="edgeStyle=orthogonalEdgeStyle;rounded=0;orthogonalLoop=1;jettySize=auto;html=1;exitX=0.5;exitY=0;exitDx=0;exitDy=0;entryX=1;entryY=0.5;entryDx=0;entryDy=0;endArrow=none;endFill=0;" edge="1" parent="1" source="lmQwwSlo8HLHVHyUA46f-65" target="lmQwwSlo8HLHVHyUA46f-72">
          <mxGeometry relative="1" as="geometry" />
        </mxCell>
        <mxCell id="lmQwwSlo8HLHVHyUA46f-79" style="edgeStyle=orthogonalEdgeStyle;rounded=0;orthogonalLoop=1;jettySize=auto;html=1;exitX=0;exitY=0;exitDx=0;exitDy=0;entryX=1;entryY=0.5;entryDx=0;entryDy=0;endArrow=none;endFill=0;" edge="1" parent="1" source="lmQwwSlo8HLHVHyUA46f-65" target="lmQwwSlo8HLHVHyUA46f-73">
          <mxGeometry relative="1" as="geometry" />
        </mxCell>
        <mxCell id="lmQwwSlo8HLHVHyUA46f-80" style="edgeStyle=orthogonalEdgeStyle;rounded=0;orthogonalLoop=1;jettySize=auto;html=1;exitX=0;exitY=1;exitDx=0;exitDy=0;entryX=1;entryY=0.5;entryDx=0;entryDy=0;endArrow=none;endFill=0;" edge="1" parent="1" source="lmQwwSlo8HLHVHyUA46f-65" target="lmQwwSlo8HLHVHyUA46f-77">
          <mxGeometry relative="1" as="geometry" />
        </mxCell>
        <mxCell id="lmQwwSlo8HLHVHyUA46f-81" style="edgeStyle=orthogonalEdgeStyle;rounded=0;orthogonalLoop=1;jettySize=auto;html=1;exitX=0.5;exitY=1;exitDx=0;exitDy=0;entryX=1;entryY=0.5;entryDx=0;entryDy=0;endArrow=none;endFill=0;" edge="1" parent="1" source="lmQwwSlo8HLHVHyUA46f-65" target="lmQwwSlo8HLHVHyUA46f-74">
          <mxGeometry relative="1" as="geometry" />
        </mxCell>
        <mxCell id="lmQwwSlo8HLHVHyUA46f-65" value="Dirección envio" style="ellipse;shape=doubleEllipse;margin=3;whiteSpace=wrap;html=1;align=center;rounded=0;fillStyle=auto;strokeWidth=2;gradientColor=none;" vertex="1" parent="1">
          <mxGeometry x="140" y="947" width="100" height="40" as="geometry" />
        </mxCell>
        <mxCell id="lmQwwSlo8HLHVHyUA46f-72" value="Ciudad" style="ellipse;whiteSpace=wrap;html=1;align=center;rounded=0;fillStyle=auto;strokeWidth=2;gradientColor=none;" vertex="1" parent="1">
          <mxGeometry x="110" y="897" width="60" height="30" as="geometry" />
        </mxCell>
        <mxCell id="lmQwwSlo8HLHVHyUA46f-73" value="Comunidad" style="ellipse;whiteSpace=wrap;html=1;align=center;rounded=0;fillStyle=auto;strokeWidth=2;gradientColor=none;" vertex="1" parent="1">
          <mxGeometry x="30" y="937" width="90" height="30" as="geometry" />
        </mxCell>
        <mxCell id="lmQwwSlo8HLHVHyUA46f-74" value="Número" style="ellipse;whiteSpace=wrap;html=1;align=center;rounded=0;fillStyle=auto;strokeWidth=2;gradientColor=none;" vertex="1" parent="1">
          <mxGeometry x="110" y="1010" width="60" height="30" as="geometry" />
        </mxCell>
        <mxCell id="lmQwwSlo8HLHVHyUA46f-77" value="Calle" style="ellipse;whiteSpace=wrap;html=1;align=center;rounded=0;fillStyle=auto;strokeWidth=2;gradientColor=none;" vertex="1" parent="1">
          <mxGeometry x="40" y="987" width="50" height="30" as="geometry" />
        </mxCell>
        <mxCell id="lmQwwSlo8HLHVHyUA46f-88" style="edgeStyle=orthogonalEdgeStyle;rounded=0;orthogonalLoop=1;jettySize=auto;html=1;exitX=0;exitY=1;exitDx=0;exitDy=0;entryX=1;entryY=0.5;entryDx=0;entryDy=0;endArrow=none;endFill=0;" edge="1" parent="1" source="lmQwwSlo8HLHVHyUA46f-82" target="lmQwwSlo8HLHVHyUA46f-83">
          <mxGeometry relative="1" as="geometry" />
        </mxCell>
        <mxCell id="lmQwwSlo8HLHVHyUA46f-89" style="edgeStyle=orthogonalEdgeStyle;rounded=0;orthogonalLoop=1;jettySize=auto;html=1;exitX=0.5;exitY=1;exitDx=0;exitDy=0;entryX=0.5;entryY=0;entryDx=0;entryDy=0;endArrow=none;endFill=0;" edge="1" parent="1" source="lmQwwSlo8HLHVHyUA46f-82" target="lmQwwSlo8HLHVHyUA46f-85">
          <mxGeometry relative="1" as="geometry" />
        </mxCell>
        <mxCell id="lmQwwSlo8HLHVHyUA46f-90" style="edgeStyle=orthogonalEdgeStyle;rounded=0;orthogonalLoop=1;jettySize=auto;html=1;exitX=1;exitY=1;exitDx=0;exitDy=0;entryX=0.5;entryY=0;entryDx=0;entryDy=0;endArrow=none;endFill=0;" edge="1" parent="1" source="lmQwwSlo8HLHVHyUA46f-82" target="lmQwwSlo8HLHVHyUA46f-84">
          <mxGeometry relative="1" as="geometry" />
        </mxCell>
        <mxCell id="lmQwwSlo8HLHVHyUA46f-91" style="edgeStyle=orthogonalEdgeStyle;rounded=0;orthogonalLoop=1;jettySize=auto;html=1;exitX=1;exitY=0.5;exitDx=0;exitDy=0;entryX=0.5;entryY=0;entryDx=0;entryDy=0;endArrow=none;endFill=0;" edge="1" parent="1" source="lmQwwSlo8HLHVHyUA46f-82" target="lmQwwSlo8HLHVHyUA46f-86">
          <mxGeometry relative="1" as="geometry" />
        </mxCell>
        <mxCell id="lmQwwSlo8HLHVHyUA46f-82" value="Dirección envio" style="ellipse;whiteSpace=wrap;html=1;align=center;rounded=0;fillStyle=auto;strokeWidth=2;gradientColor=none;" vertex="1" parent="1">
          <mxGeometry x="578" y="1017" width="100" height="40" as="geometry" />
        </mxCell>
        <mxCell id="lmQwwSlo8HLHVHyUA46f-83" value="Número" style="ellipse;whiteSpace=wrap;html=1;align=center;rounded=0;fillStyle=auto;strokeWidth=2;gradientColor=none;" vertex="1" parent="1">
          <mxGeometry x="507" y="1060" width="60" height="30" as="geometry" />
        </mxCell>
        <mxCell id="lmQwwSlo8HLHVHyUA46f-84" value="Calle" style="ellipse;whiteSpace=wrap;html=1;align=center;rounded=0;fillStyle=auto;strokeWidth=2;gradientColor=none;" vertex="1" parent="1">
          <mxGeometry x="666" y="1100" width="50" height="30" as="geometry" />
        </mxCell>
        <mxCell id="lmQwwSlo8HLHVHyUA46f-85" value="Comunidad" style="ellipse;whiteSpace=wrap;html=1;align=center;rounded=0;fillStyle=auto;strokeWidth=2;gradientColor=none;" vertex="1" parent="1">
          <mxGeometry x="560" y="1100" width="90" height="30" as="geometry" />
        </mxCell>
        <mxCell id="lmQwwSlo8HLHVHyUA46f-86" value="Ciudad" style="ellipse;whiteSpace=wrap;html=1;align=center;rounded=0;fillStyle=auto;strokeWidth=2;gradientColor=none;" vertex="1" parent="1">
          <mxGeometry x="710" y="1060" width="60" height="30" as="geometry" />
        </mxCell>
        <mxCell id="lmQwwSlo8HLHVHyUA46f-92" value="Cantidad" style="ellipse;whiteSpace=wrap;html=1;align=center;rounded=0;fillStyle=auto;strokeWidth=2;gradientColor=none;" vertex="1" parent="1">
          <mxGeometry x="490" y="852" width="60" height="30" as="geometry" />
        </mxCell>
        <mxCell id="lmQwwSlo8HLHVHyUA46f-94" value="Número" style="ellipse;whiteSpace=wrap;html=1;align=center;rounded=0;fillStyle=auto;strokeWidth=2;gradientColor=none;fontStyle=4" vertex="1" parent="1">
          <mxGeometry x="690" y="707" width="60" height="30" as="geometry" />
        </mxCell>
        <mxCell id="lmQwwSlo8HLHVHyUA46f-95" value="Descripción" style="ellipse;whiteSpace=wrap;html=1;align=center;rounded=0;fillStyle=auto;strokeWidth=2;gradientColor=none;" vertex="1" parent="1">
          <mxGeometry x="695" y="757" width="90" height="30" as="geometry" />
        </mxCell>
        <mxCell id="lmQwwSlo8HLHVHyUA46f-98" value="Existencias" style="ellipse;whiteSpace=wrap;html=1;align=center;rounded=0;fillStyle=auto;strokeWidth=2;gradientColor=none;" vertex="1" parent="1">
          <mxGeometry x="429.5" y="820" width="65" height="30" as="geometry" />
        </mxCell>
        <mxCell id="lmQwwSlo8HLHVHyUA46f-100" value="Art previstos" style="ellipse;whiteSpace=wrap;html=1;align=center;dashed=1;rounded=0;fillStyle=auto;strokeWidth=2;gradientColor=none;" vertex="1" parent="1">
          <mxGeometry x="170" y="751" width="80" height="32" as="geometry" />
        </mxCell>
        <mxCell id="lmQwwSlo8HLHVHyUA46f-101" value="Número" style="ellipse;whiteSpace=wrap;html=1;align=center;rounded=0;fillStyle=auto;strokeWidth=2;gradientColor=none;fontStyle=4" vertex="1" parent="1">
          <mxGeometry x="220" y="690" width="60" height="30" as="geometry" />
        </mxCell>
        <mxCell id="lmQwwSlo8HLHVHyUA46f-102" value="Teléfono" style="ellipse;whiteSpace=wrap;html=1;align=center;rounded=0;fillStyle=auto;strokeWidth=2;gradientColor=none;" vertex="1" parent="1">
          <mxGeometry x="290" y="690" width="90" height="30" as="geometry" />
        </mxCell>
      </root>
    </mxGraphModel>
  </diagram>
</mxfile>
